<svg width="42" height="32" viewBox="0 0 42 32" fill="none" xmlns="http://www.w3.org/2000/svg">
<path d="M20.857 31.9999C18.3747 31.9999 16.0379 30.8631 14.5051 28.9354C12.6798 30.7416 10.4285 31.6901 8.0626 31.5771C4.4188 31.4093 2.11277 28.3652 1.86129 28.0194C1.85103 28.0074 1.84247 27.9937 1.83392 27.98C-0.265117 24.96 -0.0683853 22.1471 0.0907104 19.8889C0.164271 18.836 1.11029 14.6055 3.01089 10.3835C5.67104 4.47696 9.02744 1.09908 12.9877 0.340638C16.5289 -0.337335 19.3841 1.5425 20.857 2.64335C22.3299 1.5425 25.1868 -0.337335 28.7262 0.340638C32.6865 1.09908 36.0429 4.47867 38.7014 10.3853C40.602 14.6072 41.548 18.8377 41.6215 19.8889C41.7806 22.1488 41.9774 24.96 39.88 27.9817C39.8715 27.9954 39.8629 28.0074 39.8527 28.0211C39.6012 28.367 37.2952 31.4093 33.6514 31.5788C31.2906 31.6901 29.0393 30.7467 27.2088 28.9354C25.676 30.8648 23.3392 32.0016 20.857 32.0016M16.7752 24.1827L17.9642 25.893C18.6313 26.8535 19.6869 27.4048 20.857 27.4048C22.0271 27.4048 23.0826 26.8535 23.7498 25.893L24.9387 24.1827C25.4348 23.4551 26.2645 23.0322 27.1353 23.0339C28.03 23.0425 28.8494 23.4979 29.3318 24.2529C29.8724 25.1209 31.3282 27.0829 33.4409 26.987C34.6538 26.9305 35.7795 25.7886 36.1336 25.3263C37.2267 23.7324 37.1925 22.344 37.0437 20.2227C36.8281 18.146 33.4871 5.93049 27.864 4.85532C25.9925 4.49579 24.2065 5.86372 23.2485 6.59819C22.9697 6.8122 22.749 6.97998 22.5181 7.12208C22.0151 7.43025 21.5327 7.59975 21.04 7.63912C20.9186 7.64939 20.7971 7.64939 20.6739 7.63912C20.1812 7.59975 19.6971 7.43025 19.1959 7.12208C18.9649 6.98169 18.746 6.8122 18.4654 6.59991C17.5074 5.86544 15.7231 4.49922 13.8499 4.85704C8.22341 5.93392 4.87898 18.1717 4.67027 20.2313C4.52144 22.344 4.48723 23.7359 5.5855 25.3349C5.9208 25.7766 7.05329 26.9323 8.27473 26.9888C10.3875 27.0863 11.8433 25.1226 12.3702 24.2751C12.8628 23.4996 13.684 23.0442 14.5787 23.0356C15.4563 23.0356 16.2791 23.4568 16.7752 24.1844" fill="#191C1B"/>
</svg>
